<svg width="13" height="10" viewBox="0 0 13 10" fill="none" xmlns="http://www.w3.org/2000/svg">
<path d="M4.88723 9.95279C4.88083 9.94639 4.87043 9.94637 4.86402 9.95277V9.95277C4.85762 9.95918 4.84724 9.95918 4.84083 9.95277L1.08492 6.19685C0.694391 5.80633 0.69439 5.17316 1.08491 4.78264L1.55628 4.31127C1.94681 3.92075 2.57997 3.92075 2.9705 4.31127L4.16859 5.50937C4.55911 5.89989 5.19228 5.89989 5.5828 5.50937L10.4518 0.640381C10.8423 0.249857 11.4755 0.249856 11.866 0.64038L12.3374 1.11175C12.7279 1.50227 12.7279 2.13544 12.3374 2.52596L4.91052 9.95281C4.90409 9.95924 4.89366 9.95922 4.88723 9.95279V9.95279Z" fill="white"/>
</svg>
