<svg width="273" height="116" viewBox="0 0 273 116" fill="none" xmlns="http://www.w3.org/2000/svg">
<path d="M23.8698 6.288V33H19.5498V30.516C18.8058 31.428 17.8818 32.112 16.7778 32.568C15.6978 33.024 14.4978 33.252 13.1778 33.252C11.3298 33.252 9.66184 32.844 8.17384 32.028C6.70984 31.212 5.55784 30.06 4.71784 28.572C3.87784 27.06 3.45784 25.332 3.45784 23.388C3.45784 21.444 3.87784 19.728 4.71784 18.24C5.55784 16.752 6.70984 15.6 8.17384 14.784C9.66184 13.968 11.3298 13.56 13.1778 13.56C14.4498 13.56 15.6138 13.776 16.6698 14.208C17.7258 14.64 18.6258 15.288 19.3698 16.152V6.288H23.8698ZM13.7178 29.4C14.7978 29.4 15.7698 29.16 16.6338 28.68C17.4978 28.176 18.1818 27.468 18.6858 26.556C19.1898 25.644 19.4418 24.588 19.4418 23.388C19.4418 22.188 19.1898 21.132 18.6858 20.22C18.1818 19.308 17.4978 18.612 16.6338 18.132C15.7698 17.628 14.7978 17.376 13.7178 17.376C12.6378 17.376 11.6658 17.628 10.8018 18.132C9.93784 18.612 9.25384 19.308 8.74984 20.22C8.24584 21.132 7.99384 22.188 7.99384 23.388C7.99384 24.588 8.24584 25.644 8.74984 26.556C9.25384 27.468 9.93784 28.176 10.8018 28.68C11.6658 29.16 12.6378 29.4 13.7178 29.4ZM47.8287 23.496C47.8287 23.808 47.8047 24.252 47.7567 24.828H32.6727C32.9367 26.244 33.6207 27.372 34.7247 28.212C35.8527 29.028 37.2447 29.436 38.9007 29.436C41.0127 29.436 42.7527 28.74 44.1207 27.348L46.5327 30.12C45.6687 31.152 44.5767 31.932 43.2567 32.46C41.9367 32.988 40.4487 33.252 38.7927 33.252C36.6807 33.252 34.8207 32.832 33.2127 31.992C31.6047 31.152 30.3567 29.988 29.4687 28.5C28.6047 26.988 28.1727 25.284 28.1727 23.388C28.1727 21.516 28.5927 19.836 29.4327 18.348C30.2967 16.836 31.4847 15.66 32.9967 14.82C34.5087 13.98 36.2127 13.56 38.1087 13.56C39.9807 13.56 41.6487 13.98 43.1127 14.82C44.6007 15.636 45.7527 16.8 46.5687 18.312C47.4087 19.8 47.8287 21.528 47.8287 23.496ZM38.1087 17.16C36.6687 17.16 35.4447 17.592 34.4367 18.456C33.4527 19.296 32.8527 20.424 32.6367 21.84H43.5447C43.3527 20.448 42.7647 19.32 41.7807 18.456C40.7967 17.592 39.5727 17.16 38.1087 17.16ZM58.0912 33.252C56.5312 33.252 55.0072 33.048 53.5192 32.64C52.0312 32.232 50.8432 31.716 49.9552 31.092L51.6832 27.672C52.5472 28.248 53.5792 28.716 54.7792 29.076C56.0032 29.412 57.2032 29.58 58.3792 29.58C61.0672 29.58 62.4112 28.872 62.4112 27.456C62.4112 26.784 62.0632 26.316 61.3672 26.052C60.6952 25.788 59.6032 25.536 58.0912 25.296C56.5072 25.056 55.2112 24.78 54.2032 24.468C53.2192 24.156 52.3552 23.616 51.6112 22.848C50.8912 22.056 50.5312 20.964 50.5312 19.572C50.5312 17.748 51.2872 16.296 52.7992 15.216C54.3352 14.112 56.3992 13.56 58.9912 13.56C60.3112 13.56 61.6312 13.716 62.9512 14.028C64.2712 14.316 65.3512 14.712 66.1912 15.216L64.4632 18.636C62.8312 17.676 60.9952 17.196 58.9552 17.196C57.6352 17.196 56.6272 17.4 55.9312 17.808C55.2592 18.192 54.9232 18.708 54.9232 19.356C54.9232 20.076 55.2832 20.592 56.0032 20.904C56.7472 21.192 57.8872 21.468 59.4232 21.732C60.9592 21.972 62.2192 22.248 63.2032 22.56C64.1872 22.872 65.0272 23.4 65.7232 24.144C66.4432 24.888 66.8032 25.944 66.8032 27.312C66.8032 29.112 66.0232 30.552 64.4632 31.632C62.9032 32.712 60.7792 33.252 58.0912 33.252ZM70.6786 13.776H75.1786V33H70.6786V13.776ZM72.9466 10.608C72.1306 10.608 71.4466 10.356 70.8946 9.852C70.3426 9.324 70.0666 8.676 70.0666 7.908C70.0666 7.14 70.3426 6.504 70.8946 6C71.4466 5.472 72.1306 5.208 72.9466 5.208C73.7626 5.208 74.4466 5.46 74.9986 5.964C75.5506 6.444 75.8266 7.056 75.8266 7.8C75.8266 8.592 75.5506 9.264 74.9986 9.816C74.4706 10.344 73.7866 10.608 72.9466 10.608ZM100.165 13.776V30.084C100.165 36.852 96.7088 40.236 89.7968 40.236C87.9488 40.236 86.1968 39.996 84.5408 39.516C82.8848 39.06 81.5168 38.388 80.4368 37.5L82.4528 34.116C83.2928 34.812 84.3488 35.364 85.6208 35.772C86.9168 36.204 88.2248 36.42 89.5448 36.42C91.6568 36.42 93.2048 35.94 94.1888 34.98C95.1728 34.02 95.6648 32.556 95.6648 30.588V29.58C94.8968 30.42 93.9608 31.056 92.8568 31.488C91.7528 31.92 90.5408 32.136 89.2208 32.136C87.3968 32.136 85.7408 31.752 84.2528 30.984C82.7888 30.192 81.6248 29.088 80.7608 27.672C79.9208 26.256 79.5008 24.636 79.5008 22.812C79.5008 20.988 79.9208 19.38 80.7608 17.988C81.6248 16.572 82.7888 15.48 84.2528 14.712C85.7408 13.944 87.3968 13.56 89.2208 13.56C90.6128 13.56 91.8728 13.788 93.0008 14.244C94.1528 14.7 95.1128 15.396 95.8808 16.332V13.776H100.165ZM89.9048 28.32C91.6088 28.32 93.0008 27.816 94.0808 26.808C95.1848 25.776 95.7368 24.444 95.7368 22.812C95.7368 21.204 95.1848 19.896 94.0808 18.888C93.0008 17.88 91.6088 17.376 89.9048 17.376C88.1768 17.376 86.7608 17.88 85.6568 18.888C84.5768 19.896 84.0368 21.204 84.0368 22.812C84.0368 24.444 84.5768 25.776 85.6568 26.808C86.7608 27.816 88.1768 28.32 89.9048 28.32ZM116.989 13.56C119.413 13.56 121.357 14.268 122.821 15.684C124.285 17.1 125.017 19.2 125.017 21.984V33H120.517V22.56C120.517 20.88 120.121 19.62 119.329 18.78C118.537 17.916 117.409 17.484 115.945 17.484C114.289 17.484 112.981 17.988 112.021 18.996C111.061 19.98 110.581 21.408 110.581 23.28V33H106.081V13.776H110.365V16.26C111.109 15.372 112.045 14.7 113.173 14.244C114.301 13.788 115.573 13.56 116.989 13.56ZM146.615 33.252C145.055 33.252 143.531 33.048 142.043 32.64C140.555 32.232 139.367 31.716 138.479 31.092L140.207 27.672C141.071 28.248 142.103 28.716 143.303 29.076C144.527 29.412 145.727 29.58 146.903 29.58C149.591 29.58 150.935 28.872 150.935 27.456C150.935 26.784 150.587 26.316 149.891 26.052C149.219 25.788 148.127 25.536 146.615 25.296C145.031 25.056 143.735 24.78 142.727 24.468C141.743 24.156 140.879 23.616 140.135 22.848C139.415 22.056 139.055 20.964 139.055 19.572C139.055 17.748 139.811 16.296 141.323 15.216C142.859 14.112 144.923 13.56 147.515 13.56C148.835 13.56 150.155 13.716 151.475 14.028C152.795 14.316 153.875 14.712 154.715 15.216L152.987 18.636C151.355 17.676 149.519 17.196 147.479 17.196C146.159 17.196 145.151 17.4 144.455 17.808C143.783 18.192 143.447 18.708 143.447 19.356C143.447 20.076 143.807 20.592 144.527 20.904C145.271 21.192 146.411 21.468 147.947 21.732C149.483 21.972 150.743 22.248 151.727 22.56C152.711 22.872 153.551 23.4 154.247 24.144C154.967 24.888 155.327 25.944 155.327 27.312C155.327 29.112 154.547 30.552 152.987 31.632C151.427 32.712 149.303 33.252 146.615 33.252ZM176.85 13.776L167.85 34.548C167.01 36.636 165.99 38.1 164.79 38.94C163.59 39.804 162.138 40.236 160.434 40.236C159.474 40.236 158.526 40.08 157.59 39.768C156.654 39.456 155.886 39.024 155.286 38.472L157.086 35.16C157.518 35.568 158.022 35.892 158.598 36.132C159.198 36.372 159.798 36.492 160.398 36.492C161.19 36.492 161.838 36.288 162.342 35.88C162.87 35.472 163.35 34.788 163.782 33.828L164.106 33.072L155.718 13.776H160.398L166.446 27.996L172.53 13.776H176.85ZM185.357 33.252C183.797 33.252 182.273 33.048 180.785 32.64C179.297 32.232 178.109 31.716 177.221 31.092L178.949 27.672C179.813 28.248 180.845 28.716 182.045 29.076C183.269 29.412 184.469 29.58 185.645 29.58C188.333 29.58 189.677 28.872 189.677 27.456C189.677 26.784 189.329 26.316 188.633 26.052C187.961 25.788 186.869 25.536 185.357 25.296C183.773 25.056 182.477 24.78 181.469 24.468C180.485 24.156 179.621 23.616 178.877 22.848C178.157 22.056 177.797 20.964 177.797 19.572C177.797 17.748 178.553 16.296 180.065 15.216C181.601 14.112 183.665 13.56 186.257 13.56C187.577 13.56 188.897 13.716 190.217 14.028C191.537 14.316 192.617 14.712 193.457 15.216L191.729 18.636C190.097 17.676 188.261 17.196 186.221 17.196C184.901 17.196 183.893 17.4 183.197 17.808C182.525 18.192 182.189 18.708 182.189 19.356C182.189 20.076 182.549 20.592 183.269 20.904C184.013 21.192 185.153 21.468 186.689 21.732C188.225 21.972 189.485 22.248 190.469 22.56C191.453 22.872 192.293 23.4 192.989 24.144C193.709 24.888 194.069 25.944 194.069 27.312C194.069 29.112 193.289 30.552 191.729 31.632C190.169 32.712 188.045 33.252 185.357 33.252ZM209.5 31.956C208.972 32.388 208.324 32.712 207.556 32.928C206.812 33.144 206.02 33.252 205.18 33.252C203.068 33.252 201.436 32.7 200.284 31.596C199.132 30.492 198.556 28.884 198.556 26.772V17.52H195.388V13.92H198.556V9.528H203.056V13.92H208.204V17.52H203.056V26.664C203.056 27.6 203.284 28.32 203.74 28.824C204.196 29.304 204.856 29.544 205.72 29.544C206.728 29.544 207.568 29.28 208.24 28.752L209.5 31.956ZM230.641 23.496C230.641 23.808 230.617 24.252 230.569 24.828H215.485C215.749 26.244 216.433 27.372 217.537 28.212C218.665 29.028 220.057 29.436 221.713 29.436C223.825 29.436 225.565 28.74 226.933 27.348L229.345 30.12C228.481 31.152 227.389 31.932 226.069 32.46C224.749 32.988 223.261 33.252 221.605 33.252C219.493 33.252 217.633 32.832 216.025 31.992C214.417 31.152 213.169 29.988 212.281 28.5C211.417 26.988 210.985 25.284 210.985 23.388C210.985 21.516 211.405 19.836 212.245 18.348C213.109 16.836 214.297 15.66 215.809 14.82C217.321 13.98 219.025 13.56 220.921 13.56C222.793 13.56 224.461 13.98 225.925 14.82C227.413 15.636 228.565 16.8 229.381 18.312C230.221 19.8 230.641 21.528 230.641 23.496ZM220.921 17.16C219.481 17.16 218.257 17.592 217.249 18.456C216.265 19.296 215.665 20.424 215.449 21.84H226.357C226.165 20.448 225.577 19.32 224.593 18.456C223.609 17.592 222.385 17.16 220.921 17.16ZM259.228 13.56C261.652 13.56 263.572 14.268 264.988 15.684C266.404 17.076 267.112 19.176 267.112 21.984V33H262.612V22.56C262.612 20.88 262.24 19.62 261.496 18.78C260.752 17.916 259.684 17.484 258.292 17.484C256.78 17.484 255.568 17.988 254.656 18.996C253.744 19.98 253.288 21.396 253.288 23.244V33H248.788V22.56C248.788 20.88 248.416 19.62 247.672 18.78C246.928 17.916 245.86 17.484 244.468 17.484C242.932 17.484 241.708 17.976 240.796 18.96C239.908 19.944 239.464 21.372 239.464 23.244V33H234.964V13.776H239.248V16.224C239.968 15.36 240.868 14.7 241.948 14.244C243.028 13.788 244.228 13.56 245.548 13.56C246.988 13.56 248.26 13.836 249.364 14.388C250.492 14.916 251.38 15.708 252.028 16.764C252.82 15.756 253.84 14.976 255.088 14.424C256.336 13.848 257.716 13.56 259.228 13.56Z" fill="#2B0B84"/>
<path d="M52.2 49.6V100H42.624L17.496 69.4V100H5.976V49.6H15.624L40.68 80.2V49.6H52.2ZM86.5164 100.864C79.3164 100.864 73.7004 98.872 69.6684 94.888C65.6844 90.904 63.6924 85.216 63.6924 77.824V49.6H75.3564V77.392C75.3564 86.416 79.1004 90.928 86.5884 90.928C90.2364 90.928 93.0204 89.848 94.9404 87.688C96.8604 85.48 97.8204 82.048 97.8204 77.392V49.6H109.34V77.824C109.34 85.216 107.324 90.904 103.292 94.888C99.3084 98.872 93.7164 100.864 86.5164 100.864ZM153.004 89.2H129.604L125.14 100H113.188L135.652 49.6H147.172L169.708 100H157.468L153.004 89.2ZM149.332 80.344L141.34 61.048L133.348 80.344H149.332ZM208.29 74.008H218.946V94.456C216.21 96.52 213.042 98.104 209.442 99.208C205.842 100.312 202.218 100.864 198.57 100.864C193.338 100.864 188.634 99.76 184.458 97.552C180.282 95.296 176.994 92.2 174.594 88.264C172.242 84.28 171.066 79.792 171.066 74.8C171.066 69.808 172.242 65.344 174.594 61.408C176.994 57.424 180.306 54.328 184.53 52.12C188.754 49.864 193.506 48.736 198.786 48.736C203.202 48.736 207.21 49.48 210.81 50.968C214.41 52.456 217.434 54.616 219.882 57.448L212.394 64.36C208.794 60.568 204.45 58.672 199.362 58.672C196.146 58.672 193.29 59.344 190.794 60.688C188.298 62.032 186.354 63.928 184.962 66.376C183.57 68.824 182.874 71.632 182.874 74.8C182.874 77.92 183.57 80.704 184.962 83.152C186.354 85.6 188.274 87.52 190.722 88.912C193.218 90.256 196.05 90.928 199.218 90.928C202.578 90.928 205.602 90.208 208.29 88.768V74.008ZM268.805 90.64V100H229.781V49.6H267.869V58.96H241.373V69.904H264.773V78.976H241.373V90.64H268.805Z" fill="url(#paint0_linear)"/>
<defs>
<linearGradient id="paint0_linear" x1="0" y1="74.5" x2="273" y2="74.5" gradientUnits="userSpaceOnUse">
<stop stop-color="#541CED"/>
<stop offset="1" stop-color="#8D68F3"/>
</linearGradient>
</defs>
</svg>
